# xmcd
#
# Track frame offsets: 
#        150
#        15413
#        30126
#        42576
#        56356
#        72498
#        86807
#        103609
#        118417
#        130591
#        153096
#        167634
#        184554
#        194616
#        214751
#        233126
#        244118
#        255220
#        266351
#        280116
#
# Disc length: 3919 seconds
#
# Revision: 0
# Processed by: cddbd v1.5.2PL0 Copyright (c) Steve Scherf et al.
# Submitted via: ExactAudioCopy v1.3
#
DISCID=080f4d14
DTITLE=Big Jack Reynolds - That's a Good Way to Get to Heaven
DYEAR=2019
DGENRE=Blues
TTITLE0=Honest I Do
TTITLE1=You Better Leave That Woman Alone
TTITLE2=Go on to School
TTITLE3=Scratch My Back
TTITLE4=Shame, Shame, Shame
TTITLE5=Help Me
TTITLE6=Mean Old People
TTITLE7=Walk on Up (But Keep That Red Dress On)
TTITLE8=Poor Boy
TTITLE9=Ah'w Baby
TTITLE10=Hot Potato
TTITLE11=Rock Me Baby
TTITLE12=Gonna Love Somebody
TTITLE13=Going Down Slow
TTITLE14=In My Room
TTITLE15=Made It up in Your Mind
TTITLE16=I Had a Little Dog
TTITLE17=She Moves Me
TTITLE18=You Won't Treat Me Right
TTITLE19=She Must Be a Millionaire
EXTD=
EXTT0=
EXTT1=
EXTT2=
EXTT3=
EXTT4=
EXTT5=
EXTT6=
EXTT7=
EXTT8=
EXTT9=
EXTT10=
EXTT11=
EXTT12=
EXTT13=
EXTT14=
EXTT15=
EXTT16=
EXTT17=
EXTT18=
EXTT19=
PLAYORDER=
